<svg xmlns="http://www.w3.org/2000/svg" version="1.1" xmlns:xlink="http://www.w3.org/1999/xlink" xmlns:svgjs="http://svgjs.dev/svgjs" width="100%" height="100%" viewBox="0 0 1000 600"><rect width="1000" height="600" x="0" y="0" fill="white"/><g><circle r="166.66666666666666" cx="343.0840708414713" cy="365.3062998486782" fill="grey" transform="matrix(0.7085468113144685,0,0,0.7085468113144684,0,41.16337548840745)"/><path d="M309.97254795996696 290.3063119997342L341.05747201633704 290.3063119997342Q350.59627714343884 290.3063119997342 359.0074918881037 292.7748206747989Q367.41870663276853 295.24332934986353 373.66616685978414 300.1803466999929Q379.9441025025412 305.0868886343808 383.5402015600429 312.4314638280917Q387.13630061754446 319.7760390218028 387.13630061754446 329.5281720590953L387.13630061754446 329.5281720590953Q387.13630061754446 334.5566156564493 385.7953823249167 338.67079678155716Q384.454464032289 342.8154533224064 382.3516603461228 346.13727363823426Q380.27933207569816 349.459093954062 377.7498725691504 351.92760262912674Q375.22041306260263 354.36563588844984 372.87380605050413 356.1332100014591Q370.52719903840557 357.9007841144684 368.6986740939132 358.9369482496807Q366.87014914942085 359.9426369691516 366.1082637558824 360.1559648793423L366.1082637558824 360.1559648793423Q372.53857647734714 361.98448982383474 376.95751175987033 364.8187034877978Q381.345971626652 367.65291715176096 384.27161153783976 371.03568829907186Q387.22772686476907 374.41845944638277 388.90387473055375 378.0145585038843Q390.5495471805969 381.5801821456444 391.3419079898769 384.9629532929553Q392.16474421489846 388.3457244402662 392.3171212936062 391.1799381042293Q392.46949837231386 394.01415176819245 392.46949837231386 395.7207750497187L392.46949837231386 395.7207750497187Q392.46949837231386 404.101514378642 390.42764551763076 410.4708762686237Q388.41626807868914 416.8402381586055 385.09444776286136 421.50297676706094Q381.7726274470336 426.1657153755165 377.47559382747653 429.4265848598612Q373.1785602079195 432.68745434420583 368.7901003411378 434.729307198889L368.7901003411378 434.729307198889Q358.30655732604833 439.6663245490184 345.11070230996177 440.3063082795907L345.11070230996177 440.3063082795907L309.97254795996696 440.3063082795907Q303.8774648116591 440.3063082795907 300.5556444958313 438.2035045934245Q297.2338241800035 436.1311763229998 295.7405288086681 432.6569789284643Q294.21675802159115 429.15230611818737 293.9729546956588 424.7638462514057Q293.69867595398495 420.37538638462405 293.69867595398495 415.6516969446854L293.69867595398495 415.6516969446854L293.69867595398495 314.7475954244488Q293.69867595398495 310.1458076474763 293.9729546956588 305.7268723649531Q294.21675802159115 301.3384124981714 295.7405288086681 297.925165935119Q297.2338241800035 294.48144395632505 300.5556444958313 292.40911568590036Q303.8774648116591 290.3063119997342 309.97254795996696 290.3063119997342L309.97254795996696 290.3063119997342ZM341.05747201633704 374.7232136037981L326.2768953816905 374.7232136037981L326.2768953816905 415.01171321411306L341.9107836571001 415.01171321411306Q346.9392272544541 414.7983853039223 350.90103130085424 412.66510620201456L350.90103130085424 412.66510620201456Q352.60765458238046 411.8117945612515 354.222851616682 410.40992543714066Q355.8380486509836 409.00805631302984 357.11801611212826 406.93572804260515Q358.39798357327294 404.8329243564389 359.1598689668114 402.1206123554419Q359.9217543603499 399.37782493870344 359.9217543603499 395.7207750497187L359.9217543603499 395.7207750497187Q359.9217543603499 391.75897100331855 359.09891813532835 388.8333310921308Q358.30655732604833 385.87721576520147 356.9656390334206 383.68298583181064Q355.62472074079284 381.4887558984198 353.9180974592667 379.9345096956013Q352.18099876199886 378.38026349278283 350.4743754804727 377.4050501890536L350.4743754804727 377.4050501890536Q346.2992435238818 375.1498694241797 341.05747201633704 374.7232136037981L341.05747201633704 374.7232136037981ZM339.1375208246201 315.60090706521186L326.2768953816905 315.60090706521186L326.2768953816905 352.01902887635134L339.99083246538316 352.01902887635134Q344.5926202423556 351.8057009661606 348.2191947155988 349.8857497744436L348.2191947155988 349.8857497744436Q349.74296550267576 349.1238643809051 351.2362608740112 347.8438969197604Q352.7295562453466 346.56392945861575 353.9180974592667 344.7963553456065Q355.0761632574451 343.02878123259717 355.7770978195005 340.5602725575325Q356.4780323815559 338.0917638824679 356.4780323815559 334.8918452296062L356.4780323815559 334.8918452296062Q356.4780323815559 331.2347953406215 355.71614698801744 328.492007923883Q354.9847370102205 325.779695922886 353.7352449648174 323.7987938996859Q352.51622833515586 321.8178918764858 350.96198213233737 320.416022752375Q349.4077359295188 319.0141536282643 347.7925388952172 318.0694157402765L347.7925388952172 318.0694157402765Q343.9526365117833 316.02756288559334 339.1375208246201 315.60090706521186L339.1375208246201 315.60090706521186Z " fill="#141a46" transform="matrix(0.7085468113144685,0,0,0.7085468113144684,0,41.16337548840745)"/><path d="M593.0840861207564 388.1334247356985L593.0840861207564 309.3170562851485Q593.0840861207564 305.73772646980024 593.4633528561575 302.27691750926476Q593.8426195915587 298.81610854872935 595.1226448235376 296.18494557188393Q596.426374226479 293.5537825950385 598.915312177549 291.94189896958363Q601.404250128619 290.30631117316625 605.5761842180315 290.30631117316625L605.5761842180315 290.30631117316625Q609.9140475041821 290.30631117316625 612.4978021391024 291.94189896958363Q615.0815567740227 293.5537825950385 616.3615820060015 296.18494557188393Q617.665311408943 298.81610854872935 618.0445781443441 302.27691750926476Q618.4238448797453 305.73772646980024 618.4238448797453 309.3170562851485L618.4238448797453 309.3170562851485L618.4238448797453 337.8094697821594Q619.158674179585 335.32053183108934 620.5335160954141 332.80788970905684Q621.9083580112432 330.3189517579868 624.0891417397999 328.30409722616827Q626.2462212973938 326.3129468653122 629.2803551806029 325.05662580429595Q632.3381932347746 323.8003047432797 636.415310640337 323.8003047432797L636.415310640337 323.8003047432797Q640.9902156361132 323.8003047432797 645.5888248028522 325.3173716848842Q650.1637297986284 326.8107344555262 653.8378762978269 330.27154341606166Q657.488318626063 333.73235237659713 659.7876232094324 339.3502408947265Q662.0869277928018 344.96812941285594 662.0869277928018 353.31199759168106L662.0869277928018 353.31199759168106L662.0869277928018 377.46654780254136Q662.0869277928018 385.7393034684788 659.7876232094324 391.35719198660826Q657.488318626063 396.9750805047376 653.8378762978269 400.4832978071982Q650.1637297986284 403.96781093869623 645.5888248028522 405.48487788030076Q640.9902156361132 406.97824065094284 636.415310640337 406.97824065094284L636.415310640337 406.97824065094284Q632.3381932347746 406.97824065094284 629.2803551806029 405.6982154189639Q626.2462212973938 404.39448601602254 624.0891417397999 402.4033356551665Q621.9083580112432 400.38848112334796 620.5335160954141 397.8995431722779Q619.158674179585 395.3869010502454 618.4238448797453 392.96907561206314L618.4238448797453 392.96907561206314Q618.4238448797453 394.6520717504057 618.1156906572318 397.06989718858796Q617.831240605681 399.4877226267702 616.5749195446647 401.69221052628933Q615.342302654611 403.89669842580855 612.7585480196907 405.43746953837564Q610.1747933847704 406.97824065094284 605.5761842180315 406.97824065094284L605.5761842180315 406.97824065094284Q601.072391735143 406.97824065094284 598.583453784073 405.3426528545254Q596.0708116620405 403.7307692290705 594.8381947719867 401.0521979103Q593.5818737109704 398.3973307624919 593.3211278303821 395.03133848580677Q593.0840861207564 391.6416420381591 593.0840861207564 388.1334247356985L593.0840861207564 388.1334247356985ZM636.415310640337 375.30946824494737L636.415310640337 355.1372187557991Q636.415310640337 352.9801391982051 636.249381443599 350.8467638115737Q636.0834522468609 348.7370925959048 635.3249187760587 347.05409645756225Q634.590089476219 345.39480449018225 633.1204308765396 344.35182096782904Q631.6744764478227 343.30883744547594 629.0907218129024 343.30883744547594L629.0907218129024 343.30883744547594Q625.8432503910301 343.30883744547594 623.7572833463238 345.39480449018225Q621.6713163016176 347.48077153488856 620.5098119244516 350.4674970761725Q619.3246033763229 353.4779267884191 618.8742241280341 356.8439190651042Q618.4238448797453 360.2336155127519 618.4238448797453 362.8173701476722L618.4238448797453 362.8173701476722Q618.494957392633 369.2174963075665 618.9453366409218 373.8635138162305Q619.4194200601733 378.485827153932 620.5809244373393 381.51996103714106Q621.7424288145053 384.5540949203502 623.7809875172865 386.02375352002963Q625.8432503910301 387.4697079487465 629.0907218129024 387.4697079487465L629.0907218129024 387.4697079487465Q631.6744764478227 387.4697079487465 633.1204308765396 386.4267244263934Q634.590089476219 385.38374090404017 635.3249187760587 383.6533364237725Q636.0834522468609 381.89922777254225 636.249381443599 379.7184440439857Q636.415310640337 377.5613644863917 636.415310640337 375.30946824494737L636.415310640337 375.30946824494737ZM681.5717563240355 388.29935393243653L681.5717563240355 308.8192686949345Q681.5717563240355 305.3110513924739 681.9510230594367 301.96876328675137Q682.3302897948378 298.65017935199137 683.6577233687418 296.0664247170711Q685.0088611136083 293.4826700821508 687.4977990646784 291.8944906276585Q690.010441186711 290.30631117316625 694.2534877890113 290.30631117316625L694.2534877890113 290.30631117316625Q698.5913510751618 290.30631117316625 701.0802890262318 291.8944906276585Q703.5929311482644 293.4826700821508 704.8729563802432 296.0664247170711Q706.1766857831847 298.65017935199137 706.5322483476232 301.96876328675137Q706.9115150830244 305.3110513924739 706.9115150830244 308.8192686949345L706.9115150830244 308.8192686949345L706.9115150830244 388.29935393243653Q706.9115150830244 391.8075712348971 706.5322483476232 395.1972676825448Q706.1766857831847 398.5632599592299 704.8729563802432 401.19442293607534Q703.5929311482644 403.8018817419582 701.0802890262318 405.3900611964505Q698.5913510751618 406.97824065094284 694.2534877890113 406.97824065094284L694.2534877890113 406.97824065094284Q690.010441186711 406.97824065094284 687.4977990646784 405.3900611964505Q685.0088611136083 403.8018817419582 683.6577233687418 401.19442293607534Q682.3302897948378 398.5632599592299 681.9510230594367 395.1972676825448Q681.5717563240355 391.8075712348971 681.5717563240355 388.29935393243653L681.5717563240355 388.29935393243653ZM725.2585434080546 375.6413266384233L725.2585434080546 354.97128955906106Q725.2585434080546 347.3148423381505 727.3445104527609 341.9814038715719Q729.4067733265047 336.6479654049934 732.7016530903021 333.0686355896451Q735.9965328540995 329.4656016033343 740.0499460886992 327.4744512424782Q744.0796551523364 325.48330088162226 747.9908433611606 324.4877257011943Q751.9257357409475 323.4684463498036 755.2917280176326 323.2314046401779Q758.6577202943178 322.97065875958964 760.577758142286 322.97065875958964L760.577758142286 322.97065875958964Q762.4977959902543 322.97065875958964 765.840084095977 323.2314046401779Q769.158668030737 323.4684463498036 772.9513353847484 324.4877257011943Q776.7440027387598 325.48330088162226 780.6314867766215 327.4744512424782Q784.4952666435206 329.4656016033343 787.62421721058 333.0686355896451Q790.7531677776395 336.6479654049934 792.7443181384955 341.9814038715719Q794.7591726703141 347.3148423381505 794.7591726703141 354.97128955906106L794.7591726703141 354.97128955906106L794.7591726703141 375.6413266384233Q794.7591726703141 383.32147803029653 792.7443181384955 388.65491649687505Q790.7531677776395 393.9883549634537 787.62421721058 397.56768477880195Q784.4952666435206 401.1470145941502 780.6314867766215 403.1381649550062Q776.7440027387598 405.1530194868248 772.9513353847484 406.1485946672528Q769.158668030737 407.14416984768076 765.840084095977 407.40491572826903Q762.4977959902543 407.64195743789475 760.577758142286 407.64195743789475L760.577758142286 407.64195743789475Q758.6577202943178 407.64195743789475 755.2917280176326 407.40491572826903Q751.9257357409475 407.14416984768076 747.9908433611606 406.1485946672528Q744.0796551523364 405.1530194868248 740.0499460886992 403.1381649550062Q735.9965328540995 401.1470145941502 732.7016530903021 397.56768477880195Q729.4067733265047 393.9883549634537 727.3445104527609 388.65491649687505Q725.2585434080546 383.32147803029653 725.2585434080546 375.6413266384233L725.2585434080546 375.6413266384233ZM750.9064563895569 351.3208472308251L750.9064563895569 381.47255269521594Q751.0012730734072 383.8903781333982 752.0916649376856 385.7393034684788L752.0916649376856 385.7393034684788Q752.9924234342633 387.3985954358588 754.9598696241567 388.6786206678376Q756.9273158140501 389.9823500707791 760.577758142286 389.9823500707791L760.577758142286 389.9823500707791Q764.0859754447466 389.9823500707791 765.9586049507898 388.6786206678376Q767.8312344568329 387.3985954358588 768.7556971243732 385.7393034684788L768.7556971243732 385.7393034684788Q769.7512723048012 383.8903781333982 769.9172015015391 381.47255269521594L769.9172015015391 381.47255269521594L769.9172015015391 351.3208472308251Q769.7512723048012 348.8082051087925 768.7556971243732 346.7222380640862L768.7556971243732 346.7222380640862Q767.8312344568329 345.0629460967062 765.9586049507898 343.5932874970268Q764.0859754447466 342.14733306830993 760.577758142286 342.14733306830993L760.577758142286 342.14733306830993Q756.9273158140501 342.14733306830993 754.9598696241567 343.5932874970268Q752.9924234342633 345.0629460967062 752.0916649376856 346.7222380640862L752.0916649376856 346.7222380640862Q751.0012730734072 348.8082051087925 750.9064563895569 351.3208472308251L750.9064563895569 351.3208472308251ZM878.0793336037526 342.479191461786L878.0793336037526 409.4671786020128Q878.0793336037526 416.98140079714796 876.0407749009715 422.14891006698855Q874.0022161981902 427.31641933682903 870.8258572892057 430.7298199554394Q867.6732025511837 434.1432205740496 863.785718513322 436.0632584220179Q859.921938646423 437.98329626998617 856.2003838052991 438.931463108489Q852.502533135138 439.90333411795444 849.4209909100038 440.09296748565504Q846.3394486848695 440.3063050243182 844.7512692303773 440.3063050243182L844.7512692303773 440.3063050243182Q838.8252264897343 440.3063050243182 832.922887920054 439.47665904062825Q826.9968451794113 438.6470130569382 822.137490132084 436.39511681549396Q817.2544309137944 434.1432205740496 814.0543678338472 430.3031448781131Q810.8306005829374 426.4867733531391 810.4276296765737 420.48961809960855L810.4276296765737 420.48961809960855Q810.4276296765737 419.4703387482179 810.7594880700498 418.2377218581642Q811.0913464635257 416.98140079714796 812.2528508406918 415.8436005909445Q813.4143552178577 414.7295045557036 815.7610681431523 413.9472669139388Q818.0840768974844 413.1413251012114 822.0900817901589 413.1413251012114L822.0900817901589 413.1413251012114Q826.9257326665235 413.1413251012114 829.5094873014438 413.9472669139388Q832.093241936364 414.7295045557036 833.3258588264177 415.8436005909445Q834.5821798874341 416.98140079714796 834.9614466228352 418.26142602912677Q835.3407133582364 419.56515543206825 835.7436842646001 420.65554729634647L835.7436842646001 420.65554729634647Q836.4311052225147 422.38595177661426 838.3748472414455 423.0970769054914Q840.3422934313389 423.80820203436855 843.7556940499492 423.80820203436855L843.7556940499492 423.80820203436855Q846.8372362750835 423.80820203436855 848.6387532682389 422.38595177661426Q850.4165660904317 420.98740568982254 851.341028757972 419.01995949992903Q852.2417872545498 417.05251331003564 852.502533135138 415.01395460725445Q852.7632790157263 412.9753959044734 852.7632790157263 411.6479623305693L852.7632790157263 411.6479623305693L852.7632790157263 392.96907561206314Q852.004745544924 395.48171773409564 850.6299036290949 397.9706556851657Q849.2550617132657 400.4832978071982 847.0979821556717 402.47444816805427Q844.9171984271152 404.4893026998728 841.883064543906 405.7219195899265Q838.8252264897343 406.97824065094284 834.748109084172 406.97824065094284L834.748109084172 406.97824065094284Q830.1732040883958 406.97824065094284 825.5745949216569 405.48487788030076Q820.9996899258806 403.96781093869623 817.3018392557195 400.5307061491233Q813.5802844145958 397.06989718858796 811.2572756602638 391.4046003285334Q808.9105627349692 385.7393034684788 808.9105627349692 377.30061860580344L808.9105627349692 377.30061860580344L808.9105627349692 353.14606839494314Q808.9105627349692 344.89701689996826 811.2572756602638 339.2791283818388Q813.5802844145958 333.6375356927468 817.3018392557195 330.15302256124886Q820.9996899258806 326.64480525878827 825.5745949216569 325.1514424881462Q830.1732040883958 323.63437554654166 834.748109084172 323.63437554654166L834.748109084172 323.63437554654166Q838.8252264897343 323.63437554654166 841.883064543906 324.93810494948315Q844.9171984271152 326.21813018146196 847.0979821556717 328.2329847132805Q849.2550617132657 330.22413507413654 850.6299036290949 332.73677719616904Q852.004745544924 335.2257151472391 852.7632790157263 337.64354058542136L852.7632790157263 337.64354058542136Q852.7632790157263 335.98424861804136 853.0477290672771 333.5664231798591Q853.3321791188281 331.14859774167684 854.5885001798443 328.9441098421576Q855.8448212408606 326.71591777167595 858.4285758757809 325.17514665910886Q861.0123305107012 323.63437554654166 865.5872355064774 323.63437554654166L865.5872355064774 323.63437554654166Q870.091027989366 323.63437554654166 872.579965940436 325.2699633429591Q875.0926080624686 326.881846968414 876.3252249525223 329.5604182871845Q877.5815460135385 332.2152854349925 877.8422918941268 335.6049818826403Q878.0793336037526 338.9709741593254 878.0793336037526 342.479191461786L878.0793336037526 342.479191461786ZM834.748109084172 355.30314795253713L834.748109084172 375.4753974416854Q834.748109084172 377.6324769992794 834.9140382809101 379.81326072783594Q835.0799674776481 381.9703402854299 835.8385009484504 383.67704059473505Q836.5970344192526 385.38374090404017 838.0429888479695 386.4267244263934Q839.5126474476489 387.4697079487465 842.0964020825692 387.4697079487465L842.0964020825692 387.4697079487465Q845.3438735044415 387.4697079487465 847.4298405491478 385.38374090404017Q849.4921034228915 383.32147803029653 850.67731197102 380.2636399761248Q851.838816348186 377.22950609291564 852.2891955964749 373.8635138162305Q852.7632790157263 370.47381736858284 852.7632790157263 367.81895022077487L852.7632790157263 367.81895022077487Q852.6684623318761 361.4662324028057 852.2180830835872 356.82021489414166Q851.7439996643358 352.15049321451505 850.5824952871698 349.0926551603433Q849.4209909100038 346.0585212771343 847.3824322072226 344.61256684841743Q845.3438735044415 343.1429082487379 842.0964020825692 343.1429082487379L842.0964020825692 343.1429082487379Q839.5126474476489 343.1429082487379 838.0429888479695 344.1858917710911Q836.5970344192526 345.2288752934442 835.8385009484504 346.9829839446746Q835.0799674776481 348.7370925959048 834.9140382809101 350.8941721534988Q834.748109084172 353.0512517110928 834.748109084172 355.30314795253713L834.748109084172 355.30314795253713ZM1012.9323622098215 333.3056772992708L1012.9323622098215 333.3056772992708Q1016.9146629315334 333.3056772992708 1020.0436134985929 335.8420235922659Q1023.1725640656523 338.4020740562236 1025.5903895038346 344.96812941285594L1025.5903895038346 344.96812941285594L1034.432045272874 368.4826670077268L1035.7594788467777 368.4826670077268L1045.0989222060307 335.81831942130333Q1045.7626389929828 333.47160649600875 1046.805622515336 331.31452693841476Q1047.848606037689 329.1337432098582 1049.3419688083313 327.4270429005531Q1050.8353315789732 325.72034259124797 1052.9212986236794 324.67735906889476Q1055.0072656683856 323.63437554654166 1057.922878696782 323.63437554654166L1057.922878696782 323.63437554654166Q1060.9333084090285 323.63437554654166 1062.9955712827723 324.72476741082Q1065.0815383274785 325.8151592750982 1066.4326760723452 327.56926792632856Q1067.760109646249 329.29967240659624 1068.329009749351 331.5515686480405Q1068.9216140234153 333.8034648894848 1068.9216140234153 336.1501778147794L1068.9216140234153 336.1501778147794Q1068.9216140234153 338.4020740562236 1068.3053055783885 340.5117452718925Q1067.6652929623988 342.6451206585239 1066.9304636625593 344.8022002161179L1066.9304636625593 344.8022002161179L1048.417506140791 393.9883549634537Q1046.4974682928228 398.895118352706 1044.9566971802556 401.5262813295514Q1043.4159260676884 404.13374013543427 1041.922563297046 405.3426528545254Q1040.4292005264042 406.55156557361653 1038.9121335848 406.7649031122797Q1037.4187708141576 406.97824065094284 1035.7594788467777 406.97824065094284L1035.7594788467777 406.97824065094284Q1033.9342576826598 406.97824065094284 1032.2986698862424 406.7649031122797Q1030.663082089825 406.55156557361653 1029.05119846437 405.3426528545254Q1027.4156106679525 404.13374013543427 1025.7563187005726 401.5262813295514Q1024.0970267331927 398.895118352706 1022.248101398112 393.9883549634537L1022.248101398112 393.9883549634537L1013.5960789967734 363.9788745248382L1012.2449412519069 363.9788745248382L1003.2610604570923 393.9883549634537Q1001.4121351220116 398.895118352706 999.8713640094446 401.5262813295514Q998.3305928968774 404.13374013543427 996.8846384681606 405.3426528545254Q995.414979868481 406.55156557361653 993.9216170978392 406.7649031122797Q992.4282543271971 406.97824065094284 990.7452581888546 406.97824065094284L990.7452581888546 406.97824065094284Q988.9200370247366 406.97824065094284 987.3081533992817 406.7649031122797Q985.6725656028642 406.55156557361653 984.0369778064469 405.3426528545254Q982.425094180992 404.13374013543427 980.765802213612 401.5262813295514Q979.0828060752693 398.895118352706 977.2575849111514 393.9883549634537L977.2575849111514 393.9883549634537L958.5786981926451 344.8022002161179Q957.8438688928054 342.81104985526196 957.203856276816 340.5117452718925Q956.5875478317892 338.2361448594857 956.5875478317892 335.98424861804136L956.5875478317892 335.98424861804136Q956.5875478317892 333.5664231798591 957.203856276816 331.31452693841476Q957.8438688928054 329.06263069697053 959.2187108086346 327.3559303876654Q960.5935527244637 325.6492300783603 962.8454489659081 324.6536548979322Q965.0973452073523 323.63437554654166 968.4159291421123 323.63437554654166L968.4159291421123 323.63437554654166Q970.7626420674069 323.63437554654166 972.63527157345 324.67735906889476Q974.5079010794931 325.72034259124797 976.0012638501352 327.4270429005531Q977.494626620777 329.1337432098582 978.5850184850555 331.31452693841476Q979.6754103493337 333.47160649600875 980.433943820136 335.81831942130333L980.433943820136 335.81831942130333L990.9111873855926 368.4826670077268L992.2623251304591 368.4826670077268L999.9187723513697 344.96812941285594Q1002.0047393960759 338.4020740562236 1005.4655483566114 335.8420235922659Q1008.9263573171469 333.3056772992708 1012.9323622098215 333.3056772992708ZM1148.9231910220938 354.30757277210904L1148.9231910220938 359.47508204194963Q1148.9231910220938 360.8025156158537 1148.7572618253557 362.60403260900904Q1148.5913326286177 364.4055496021645 1147.4772365933768 366.0174332276194Q1146.3394363871735 367.65302102403683 1143.9216109489912 368.81452540120284Q1141.503785510809 369.97602977836885 1137.0948097117707 369.97602977836885L1137.0948097117707 369.97602977836885L1103.9326745351332 369.97602977836885L1103.9326745351332 377.9880395637179Q1103.9326745351332 379.979189924574 1104.4304621253473 382.13626948216796Q1104.9282497155614 384.3170532107245 1106.1371624346525 386.14227437484254Q1107.3460751537432 387.9674955389606 1109.3372255145996 389.15270408708915Q1111.352080046418 390.31420846425505 1114.2676930748144 390.31420846425505L1114.2676930748144 390.31420846425505Q1117.5862770095746 390.31420846425505 1119.3877940027296 389.50826665152766Q1121.1656068249226 388.72602900976284 1122.2085903472757 387.56452463259683Q1123.2515738696288 386.4030202554308 1124.081219853319 385.0518825105642Q1124.9345700079716 383.72444893666017 1126.3094119238003 382.56294455949427Q1127.68425383963 381.40144018232826 1130.1257834487747 380.59549836960076Q1132.5910172288823 379.81326072783594 1136.9288805150327 379.81326072783594L1136.9288805150327 379.81326072783594Q1139.0148475597389 379.81326072783594 1140.9585895786695 380.1451191213119Q1142.926035768563 380.47697751478796 1144.4193985392053 381.40144018232826Q1145.9364654808096 382.302198678906 1146.8372239773876 383.9377864753233Q1147.7616866449275 385.5496701007782 1147.7616866449275 388.1334247356985L1147.7616866449275 388.1334247356985Q1147.7616866449275 393.56167988612737 1144.3482860263175 397.18841804340076Q1140.934885407707 400.81515620067427 1135.7673761378664 402.97223575826825Q1130.5998668680259 405.1530194868248 1124.5553032725702 406.05377798340254Q1118.5107396771145 406.97824065094284 1113.2484137234237 406.97824065094284L1113.2484137234237 406.97824065094284Q1106.3504999733154 406.8834239670925 1100.0925988391964 405.2241319997125Q1093.8346977050778 403.5648400323325 1089.0464551706382 399.89069353313397Q1084.258212636199 396.21654703393534 1081.4137121206904 390.31420846425505Q1078.5929157761443 384.3881657236122 1078.5929157761443 375.80725583516136L1078.5929157761443 375.80725583516136L1078.5929157761443 356.2987231329651Q1078.5929157761443 348.40523420242886 1080.4655452821876 342.88216236814964Q1082.3381747882304 337.3827947048331 1085.348604500477 333.73235237659713Q1088.3353300417612 330.0582058773985 1092.0805890538472 328.01964717461743Q1095.8495522368962 325.98108847183624 1099.66592376187 324.98551329140827Q1103.5059994578069 323.9662339400176 1106.9668084183422 323.729192230392Q1110.4276173788776 323.4684463498036 1112.9165553299476 323.4684463498036L1112.9165553299476 323.4684463498036Q1121.3315360216607 323.4684463498036 1127.3049871042285 324.98551329140827Q1133.254734015834 326.47887606205023 1137.2607389085088 328.8967015002325Q1141.266743801183 331.31452693841476 1143.5897525555151 334.46718167643684Q1145.9364654808096 337.64354058542136 1147.0979698579758 341.0095328621065Q1148.2594742351416 344.3992293097543 1148.5913326286177 347.86003827028964Q1148.9231910220938 351.3208472308251 1148.9231910220938 354.30757277210904L1148.9231910220938 354.30757277210904ZM1103.9326745351332 351.65270562430106L1103.9326745351332 357.4839316810937L1124.7686408112336 357.4839316810937Q1124.7686408112336 353.5490393013068 1124.5553032725702 350.5149054180976Q1124.3419657339073 347.48077153488856 1123.2989822115542 345.39480449018225Q1122.255998689201 343.30883744547594 1120.0515107896817 342.2184455811976Q1117.8470228901624 341.15175788788196 1113.7699054846003 341.15175788788196L1113.7699054846003 341.15175788788196Q1110.3328006950273 341.15175788788196 1108.3890586760967 342.2184455811976Q1106.4216124862032 343.30883744547594 1105.426037305775 344.9444252418934Q1104.4304621253473 346.55630886734826 1104.169716244759 348.40523420242886Q1103.9326745351332 350.2304553665468 1103.9326745351332 351.65270562430106L1103.9326745351332 351.65270562430106ZM1165.9190816022574 388.1334247356985L1165.9190816022574 309.3170562851485Q1165.9190816022574 305.73772646980024 1166.2983483376584 302.27691750926476Q1166.6776150730598 298.81610854872935 1167.9576403050387 296.18494557188393Q1169.26136970798 293.5537825950385 1171.7503076590501 291.94189896958363Q1174.2629497810826 290.30631117316625 1178.434883870495 290.30631117316625L1178.434883870495 290.30631117316625Q1182.749042985683 290.30631117316625 1185.3327976206033 291.94189896958363Q1187.9165522555236 293.5537825950385 1189.220281658465 296.18494557188393Q1190.5003068904439 298.81610854872935 1190.8795736258453 302.27691750926476Q1191.2588403612463 305.73772646980024 1191.2588403612463 309.3170562851485L1191.2588403612463 309.3170562851485L1191.2588403612463 337.8094697821594Q1192.0173738320486 335.32053183108934 1193.3922157478778 332.80788970905684Q1194.767057663707 330.3189517579868 1196.924137221301 328.30409722616827Q1199.1049209498574 326.3129468653122 1202.1390548330664 325.05662580429595Q1205.173188716276 323.8003047432797 1209.250306121838 323.8003047432797L1209.250306121838 323.8003047432797Q1213.8489152885768 323.8003047432797 1218.423820284353 325.3173716848842Q1222.9987252801293 326.8107344555262 1226.672871779328 330.27154341606166Q1230.3470182785268 333.73235237659713 1232.646322861896 339.3502408947265Q1234.921923274303 344.96812941285594 1234.921923274303 353.31199759168106L1234.921923274303 353.31199759168106L1234.921923274303 377.46654780254136Q1234.921923274303 385.7393034684788 1232.646322861896 391.35719198660826Q1230.3470182785268 396.9750805047376 1226.672871779328 400.4832978071982Q1222.9987252801293 403.96781093869623 1218.423820284353 405.48487788030076Q1213.8489152885768 406.97824065094284 1209.250306121838 406.97824065094284L1209.250306121838 406.97824065094284Q1205.173188716276 406.97824065094284 1202.1390548330664 405.6982154189639Q1199.1049209498574 404.39448601602254 1196.924137221301 402.4033356551665Q1194.767057663707 400.38848112334796 1193.3922157478778 397.8995431722779Q1192.0173738320486 395.3869010502454 1191.2588403612463 392.96907561206314L1191.2588403612463 392.96907561206314Q1191.2588403612463 394.6520717504057 1190.9743903096955 397.06989718858796Q1190.666236087182 399.4877226267702 1189.4336191971283 401.69221052628933Q1188.1772981361119 403.89669842580855 1185.5935435011916 405.43746953837564Q1183.0097888662713 406.97824065094284 1178.434883870495 406.97824065094284L1178.434883870495 406.97824065094284Q1173.9310913876066 406.97824065094284 1171.418449265574 405.3426528545254Q1168.929511314504 403.7307692290705 1167.6731902534875 401.0521979103Q1166.4168691924715 398.3973307624919 1166.1798274828457 395.03133848580677Q1165.9190816022574 391.6416420381591 1165.9190816022574 388.1334247356985L1165.9190816022574 388.1334247356985ZM1209.250306121838 375.30946824494737L1209.250306121838 355.1372187557991Q1209.250306121838 352.9801391982051 1209.0843769251 350.8467638115737Q1208.918447728362 348.7370925959048 1208.183618428522 347.05409645756225Q1207.4250849577202 345.39480449018225 1205.9791305290032 344.35182096782904Q1204.5094719293238 343.30883744547594 1201.9257172944035 343.30883744547594L1201.9257172944035 343.30883744547594Q1198.678245872531 343.30883744547594 1196.5922788278249 345.39480449018225Q1194.5063117831187 347.48077153488856 1193.3448074059525 350.4674970761725Q1192.1833030287867 353.4779267884191 1191.709219609535 356.8439190651042Q1191.2588403612463 360.2336155127519 1191.2588403612463 362.8173701476722L1191.2588403612463 362.8173701476722Q1191.3536570450965 369.2174963075665 1191.8040362933853 373.8635138162305Q1192.2544155416745 378.485827153932 1193.4159199188402 381.51996103714106Q1194.601128466969 384.5540949203502 1196.6396871697498 386.02375352002963Q1198.678245872531 387.4697079487465 1201.9257172944035 387.4697079487465L1201.9257172944035 387.4697079487465Q1204.5094719293238 387.4697079487465 1205.9791305290032 386.4267244263934Q1207.4250849577202 385.38374090404017 1208.183618428522 383.6533364237725Q1208.918447728362 381.89922777254225 1209.0843769251 379.7184440439857Q1209.250306121838 377.5613644863917 1209.250306121838 375.30946824494737L1209.250306121838 375.30946824494737Z " fill="#141a46" transform="matrix(0.7085468113144685,0,0,0.7085468113144684,0,41.16337548840745)"/></g></svg>